<?xml version="1.0" encoding="UTF-8" standalone="no"?>
<!-- Created with Inkscape (http://www.inkscape.org/) -->

<svg
   width="1200"
   height="628"
   viewBox="0 0 1200 628"
   version="1.1"
   id="svg1"
   xml:space="preserve"
   inkscape:version="1.4.4 (dcaf3e7d9e, 2026-05-05)"
   sodipodi:docname="socially_awkward_penguin_02_v0.0.07.svg"
   inkscape:export-filename="socially_awkward_penguin_02_v0.0.07.png"
   inkscape:export-xdpi="96"
   inkscape:export-ydpi="96"
   xmlns:inkscape="http://www.inkscape.org/namespaces/inkscape"
   xmlns:sodipodi="http://sodipodi.sourceforge.net/DTD/sodipodi-0.dtd"
   xmlns="http://www.w3.org/2000/svg"
   xmlns:svg="http://www.w3.org/2000/svg"><sodipodi:namedview
     id="namedview1"
     pagecolor="#505050"
     bordercolor="#eeeeee"
     borderopacity="1"
     inkscape:showpageshadow="0"
     inkscape:pageopacity="0"
     inkscape:pagecheckerboard="0"
     inkscape:deskcolor="#505050"
     inkscape:document-units="px"
     inkscape:zoom="0.73300744"
     inkscape:cx="401.76946"
     inkscape:cy="460.43189"
     inkscape:window-width="1600"
     inkscape:window-height="963"
     inkscape:window-x="0"
     inkscape:window-y="0"
     inkscape:window-maximized="1"
     inkscape:current-layer="layer1" /><defs
     id="defs1" /><g
     inkscape:label="Layer 1"
     inkscape:groupmode="layer"
     id="layer1"><path
       style="display:inline;fill:#374845;fill-opacity:1;stroke-width:7.2"
       d="m 530.75254,509.07577 c 0,0 -34.93043,11.28304 -35.47109,19.70615 -0.14298,2.2275 8.41507,6.69377 20.90054,7.639 20.3785,1.54277 51.02553,-2.0685 61.20846,-3.69776 16.4218,-2.62748 -0.65687,-26.27488 -0.65687,-26.27488 0,0 -7.22559,13.79431 -45.98104,2.62749 z"
       id="path22901"
       sodipodi:nodetypes="cssscc"
       inkscape:label="foot_r" /><path
       style="display:inline;fill:#374845;fill-opacity:1;stroke-width:7.2"
       d="m 615.72935,518.7451 c 0,0 -33.32053,12.57096 -33.86119,20.99407 -0.14298,2.2275 8.41507,6.69377 20.90054,7.639 20.3785,1.54277 54.24533,-2.71246 64.42826,-4.34172 16.4218,-2.62748 -1.30083,-26.59686 -1.30083,-26.59686 0,0 -13.34321,11.86243 -50.16678,2.30551 z"
       id="path22901-0"
       sodipodi:nodetypes="cssscc"
       inkscape:label="foot_l" /><path
       style="fill:#a05a2c;stroke-width:7.2"
       d="m 521.27996,286.09479 c 0,0 -5.94012,17.9221 -65.97505,-25.78333 -62.52472,-45.51801 -21.61257,84.52918 46.10683,102.7798 20.65202,-48.98851 19.86822,-76.99647 19.86822,-76.99647 z"
       id="path22898"
       sodipodi:nodetypes="cscc"
       inkscape:label="arm_r" /><path
       style="display:inline;fill:#dddddd;fill-opacity:1;stroke-width:7.2"
       d="m 523.02432,201.71737 c -1.92112,-31.21817 3.36195,-24.49426 -4.8028,-36.98152 -8.16475,-12.48727 -22.09286,-6.72391 -22.09286,-6.72391 0,0 -14.40838,38.90263 0.96056,63.39688 27.37593,-16.3295 25.9351,-19.69145 25.9351,-19.69145 z"
       id="path22899"
       sodipodi:nodetypes="csccc"
       inkscape:label="eye_r" /><path
       style="display:inline;fill:#dddddd;fill-opacity:1;stroke-width:7.2"
       d="m 546.55801,208.92156 c 0,0 -3.84224,-67.23912 28.33648,-63.39689 32.17872,3.84224 56.67298,48.9885 50.90962,63.39689 -5.76335,14.40838 -30.62516,66.85097 -6.72391,101.33896 11.6889,16.86634 -44.66898,74.01591 10.56615,143.60355 16.37841,20.63424 23.4227,-16.71434 30.37484,-46.19244 5.002,-21.20921 11.88511,-34.97891 11.88975,-34.97478 0,0 7.68447,95.57561 13.9281,108.54315 6.24364,12.96755 -30.26931,66.59979 -94.13477,24.01397 -8.06888,-5.38037 -21.21672,10.89371 -33.09149,9.63503 -28.31727,-3.00154 -49.50561,-17.30838 -58.64188,-56.22213 -12.96754,-55.23214 -1.44084,-84.52918 -1.44084,-84.52918 l 21.13229,-73.96304 c 0,0 -0.96055,-43.22515 -6.7239,-48.9885 -5.76336,-5.76336 37.94207,6.24363 55.71241,-27.37593 -19.21118,-12.48726 -22.09285,-14.88866 -22.09285,-14.88866 z"
       id="path22900"
       sodipodi:nodetypes="czsssscssssccscc"
       inkscape:label="chest" /><path
       id="path22897"
       style="fill:#a05a2c;stroke-width:7.2"
       d="m 579.93945,101.28711 c -16.83256,-1.01832 -33.71956,2.82431 -48.66015,10.60156 -18.77479,9.16244 -24.83462,30.66225 -35.54688,46.94727 9.58067,-8.70356 20.41794,3.78131 24.32227,12.15429 4.68471,9.04572 2.49414,32.09571 2.49414,32.09571 0,0 7.5738,-3.57626 24.39258,4.97851 -2.54015,-10.82208 -0.0265,-38.07872 7.38086,-47.91015 7.88122,-13.81669 27.88508,-16.18554 40.32226,-7.35157 11.92265,5.90889 15.12751,12.53649 21.52746,21.98472 10.71262,13.99505 13.77176,33.48678 4.78487,48.35944 -3.17066,5.45256 -11.46487,27.26403 -10.10725,37.10506 -0.67658,2.60973 -1.30837,5.19772 -1.90039,7.74414 -6.64239,28.57043 14.47594,43.49601 11.47661,49.45853 -33.29144,66.18171 -15.40059,171.07216 32.02149,136.54888 8.16475,-79.24611 21.24213,-80.01327 21.24213,-80.01327 0,0 -0.23205,94.67698 20.15821,123 19.13958,26.58575 68.30857,2.13333 68.03254,-4.37478 -2.8748,-2.8005 -10.19172,-7.34205 -18.50249,-15.90416 -7.92243,-8.16202 -11.34262,-14.80422 -12.77285,-19.05862 -1.30568,-3.88389 -3.64453,-13.11227 -2.90709,-20.69601 3.38564,-34.81749 2.16019,-99.75722 -0.15871,-113.42932 -5.13832,-30.29522 -31.19428,-89.5507 -48.08594,-127.24023 -0.26948,-0.0617 -0.53723,-0.11998 -0.80468,-0.17773 -1.20211,-5.2441 -3.20989,-10.44354 -4.74414,-15.35352 -2.5773,-25.06426 -13.8982,-50.20256 -34.66602,-65.31055 -16.68253,-13.18972 -38.87367,-14.67816 -59.29883,-14.1582 z"
       inkscape:label="arm_l_and_back"
       sodipodi:nodetypes="cccccccccccssccscssssccccc" /><path
       style="display:inline;fill:#800000;fill-opacity:1;stroke-width:7.2"
       d="m 567.47731,225.79824 c 0,0 -10.61467,11.54259 -13.9376,15.36697 -3.32292,3.82437 -11.30997,7.29306 -15.07685,7.47493 -3.76688,0.18186 -60.42545,-2.67922 -55.70783,-4.91769 4.71762,-2.23847 84.77577,-20.51837 84.72228,-17.92421 z"
       id="path22902-6"
       sodipodi:nodetypes="csssc"
       inkscape:label="beak_lower" /><path
       style="fill:#550000;fill-opacity:1;stroke-width:7.2"
       d="m 567.13992,223.6649 c 0,0 -26.10874,-17.40583 -30.7503,-19.43651 -4.64155,-2.03068 -13.34446,-1.74058 -16.82563,-0.2901 -3.48117,1.45049 -45.54525,38.00273 -38.58292,39.16312 5.1507,0.85845 87.31924,-17.11573 86.15885,-19.43651 z"
       id="path22902"
       sodipodi:nodetypes="csssc"
       inkscape:label="beak_upper" /><path
       style="display:inline;fill:#24221c;fill-opacity:1;stroke-width:7.2"
       d="m 508.83039,186.24237 -8.12272,5.22175 c 0,0 -5.46001,16.15014 6.38214,20.88699 2.90097,1.16039 6.67224,-5.51184 6.67224,-5.51184 0,0 7.25243,-11.60389 -4.93166,-20.5969 z"
       id="path22903"
       sodipodi:nodetypes="ccscc"
       inkscape:label="eye_r" /><ellipse
       style="fill:#cccccc;fill-opacity:1;stroke-width:7.2"
       id="path22904"
       cx="504.33389"
       cy="196.25072"
       rx="3.04602"
       ry="3.3361173"
       inkscape:label="eye_r_glint" /><path
       style="display:inline;fill:#24221c;fill-opacity:1;stroke-width:8.87132"
       d="m 566.42158,180.53257 -8.29584,6.09139 c 0,0 -7.06991,20.46984 7.52114,26.30625 3.57437,1.42975 18.80865,-5.37962 18.80865,-5.37962 0,0 4.98013,-12.16122 -0.65729,-20.45266 -7.31563,-2.68028 -10.99304,-3.14149 -17.37666,-6.56536 z"
       id="path22903-7"
       sodipodi:nodetypes="ccsccc"
       inkscape:label="eye_l" /><ellipse
       style="fill:#cccccc;fill-opacity:1;stroke-width:11.0688"
       id="path22904-9"
       cx="563.84955"
       cy="192.52167"
       rx="4.7805271"
       ry="5.0238042"
       inkscape:label="eye_l_glint" /></g></svg>
